<?xml version="1.0" encoding="UTF-8"?>
<svg version="1.1" xmlns="http://www.w3.org/2000/svg" width="512" height="512">
<path d="M0 0 C0.84416224 -0.00445784 1.68832447 -0.00891569 2.55806738 -0.01350862 C3.94174959 -0.01323207 3.94174959 -0.01323207 5.35338497 -0.01294994 C6.33726112 -0.01662663 7.32113726 -0.02030332 8.33482784 -0.02409142 C11.64106254 -0.03512948 14.94726582 -0.03897234 18.2535162 -0.04278088 C20.62046566 -0.04904548 22.98741414 -0.05569228 25.35436153 -0.0626936 C32.46441075 -0.08192117 39.57446055 -0.09252242 46.6845285 -0.10142139 C50.03580738 -0.10580793 53.38708468 -0.11117384 56.73836231 -0.11641026 C67.88436111 -0.13342166 79.03035893 -0.14791429 90.17636871 -0.155159 C93.06764445 -0.15706878 95.95892018 -0.15898913 98.85019588 -0.16094494 C99.56877724 -0.16142868 100.28735859 -0.16191242 101.02771514 -0.16241082 C112.65982657 -0.17070537 124.29183497 -0.19603291 135.92390145 -0.22852562 C147.87622442 -0.26163965 159.82849511 -0.27961173 171.78086418 -0.28280324 C178.48763062 -0.28496447 185.19422396 -0.29410214 191.90094852 -0.31926441 C198.21370204 -0.34256557 204.52618575 -0.34676989 210.83897114 -0.33650303 C213.15160806 -0.33600805 215.46425836 -0.34231731 217.77685452 -0.35605907 C232.65111181 -0.43947377 244.64218943 -0.29799375 256.46225643 9.79047108 C267.96504166 21.52800702 268.94269349 35.06377849 268.82163143 50.63422108 C268.81711971 51.74281483 268.81260799 52.85140858 268.80795956 53.99359608 C268.79626301 56.70719507 268.77987229 59.42067868 268.75913143 62.13422108 C269.56935694 62.1314557 270.37958244 62.12869032 271.21436024 62.12584114 C290.95424615 62.05950786 310.69411278 62.00990478 330.4340868 61.97878456 C339.98030132 61.96333398 349.52644132 61.9422791 359.07260799 61.90790272 C367.39574139 61.87794492 375.71882079 61.85863293 384.04200661 61.85195559 C388.44663214 61.84805413 392.85110323 61.83892301 397.25567913 61.81703091 C401.40725158 61.79656482 405.55860699 61.79040759 409.71022511 61.79489803 C411.22829082 61.79407734 412.74636431 61.7881722 414.26438618 61.77660465 C427.72896588 61.67909459 437.54252036 63.202909 447.44663143 72.76312733 C454.07060544 79.90045933 456.87089907 88.26711601 456.89957333 97.90721607 C456.90528347 99.06079105 456.91099361 100.21436604 456.91687679 101.40289783 C456.91799465 102.65961292 456.91911251 103.91632801 456.92026424 105.21112537 C456.92489641 106.5552277 456.9299216 107.89932872 456.93530941 109.24342823 C456.94839873 112.88831496 456.95487181 116.5331833 456.95932007 120.17808986 C456.96225695 122.45884206 456.96636295 124.73958931 456.97082424 127.02033901 C456.98449125 134.16654139 456.99416129 141.31273235 456.99802613 148.45894688 C457.00250234 156.68887286 457.02003318 164.91863238 457.04902673 173.14850777 C457.07069667 179.52238859 457.08073327 185.89622276 457.08206725 192.27013999 C457.08311166 196.0710617 457.08894123 199.87182677 457.10688686 203.67270947 C457.12345935 207.25229295 457.12547904 210.8316036 457.11674786 214.41121197 C457.11561983 216.33679546 457.12926686 218.26237028 457.14350033 220.1879015 C457.08583458 232.27857269 454.47744871 241.90034948 446.13022518 250.88812733 C437.78547499 258.6133137 428.42775208 260.3093924 417.44663143 260.19672108 C416.6106744 260.19220936 415.77471737 260.18769764 414.91342831 260.1830492 C412.86196494 260.17132655 410.8105387 260.15339311 408.75913143 260.13422108 C408.76801388 260.7119376 408.77689632 261.28965412 408.78604794 261.8848772 C408.87461075 267.90319382 408.93490266 273.92132501 408.97885799 279.94012928 C408.99896083 282.18564849 409.02624748 284.43111543 409.06088924 286.67645741 C409.10946453 289.90599948 409.1321138 293.13484882 409.14975643 296.36468983 C409.17040157 297.36695103 409.19104671 298.36921223 409.21231747 299.40184498 C409.21371378 303.74895125 409.16340904 306.41627207 406.99985409 310.25848866 C403.87177394 312.87703733 402.09898214 313.00872261 398.13120174 312.77484608 C393.5034764 311.52503635 390.75918169 308.09694867 387.63413143 304.63422108 C386.97026424 303.93812733 386.30639706 303.24203358 385.62241268 302.52484608 C382.43015685 299.15142505 379.36061268 295.68351148 376.32944393 292.16547108 C372.35993788 287.5974511 368.07241076 283.37512995 363.75913143 279.13422108 C358.18200773 273.65067328 352.84945079 268.07292699 347.75913143 262.13422108 C346.14877817 260.52386782 344.41699071 261.0027858 342.18846798 260.99619007 C340.70615688 260.98801006 340.70615688 260.98801006 339.19390011 260.9796648 C338.10046795 260.97862247 337.00703579 260.97758015 335.88046932 260.97650623 C334.73571133 260.97142551 333.59095333 260.9663448 332.4115057 260.96111012 C329.91459141 260.95037673 327.41766733 260.9417683 324.92073917 260.93499088 C320.96507985 260.92323392 317.00953129 260.90378653 313.05391598 260.88187122 C301.80294419 260.81994363 290.55197529 260.76606518 279.30087948 260.73285389 C273.09192691 260.71444545 266.88311601 260.68542413 260.67426771 260.64484918 C257.39085737 260.62386699 254.10766249 260.61002623 250.82418156 260.60604191 C247.15002667 260.60111436 243.47639275 260.57790485 239.80234432 260.55072498 C238.1895232 260.55523418 238.1895232 260.55523418 236.54411983 260.55983448 C224.89464116 260.43233909 216.48347113 257.62507676 208.07163143 249.50531483 C203.67114626 244.76379205 199.75913143 238.75722207 199.75913143 232.13422108 C186.24949645 231.84637749 172.74234656 231.65809481 159.22969913 231.59275341 C152.95298088 231.55936129 146.68035645 231.49322494 140.40512753 231.34906483 C134.33497195 231.21087348 128.26986598 231.16286544 122.19821453 231.1742487 C119.89611806 231.16331722 117.59392798 231.12127259 115.29304028 231.04588413 C103.55517731 230.68152794 94.85256089 230.992358 85.97308826 239.32133389 C82.35260007 243.09820888 79.03535423 247.05902113 75.75913143 251.13422108 C74.48318047 252.62109638 73.19952052 254.101403 71.9069891 255.57388783 C71.35442755 256.20461138 70.801866 256.83533493 70.23256016 257.48517132 C68.42177417 259.51178865 66.5422283 261.44928125 64.60288143 263.35297108 C63.89002987 264.05808826 63.17717831 264.76320545 62.44272518 265.48968983 C60.98699601 266.91937733 59.53126685 268.34906483 58.07553768 269.77875233 C53.97894314 273.83089919 50.08075512 277.97245747 46.32211971 282.33978748 C44.28644743 284.67689952 42.14164551 286.88439531 39.94663143 289.07172108 C38.82321346 290.19900623 38.82321346 290.19900623 37.67710018 291.34906483 C34.52834893 294.27977628 32.07498757 294.3509463 27.82944393 294.65765858 C24.58507107 293.83738318 23.58332778 291.85255976 21.75913143 289.13422108 C21.27811337 286.36900806 21.27811337 286.36900806 21.30502987 283.33417225 C21.30533199 282.19336704 21.30563412 281.05256184 21.3059454 279.87718678 C21.32659054 278.65618778 21.34723568 277.43518879 21.36850643 276.17718983 C21.37416622 274.91909 21.37982601 273.66099018 21.38565731 272.36476612 C21.40423099 269.03199323 21.44012027 265.70032892 21.48447323 262.36786366 C21.52551022 258.96260592 21.54368617 255.55723333 21.56381893 252.1517992 C21.60790013 245.47896815 21.67482447 238.80665858 21.75913143 232.13422108 C21.10134197 232.1427309 20.44355251 232.15124073 19.76583004 232.16000843 C16.75190463 232.1940304 13.73801982 232.21500415 10.72397518 232.23578358 C9.68930111 232.2493993 8.65462704 232.26301502 7.58859921 232.27704334 C-3.8763924 232.3362704 -13.69691838 230.30178579 -22.24086857 222.13422108 C-31.9695998 212.48556171 -35.41281282 202.59553835 -35.51719797 188.98121512 C-35.52326449 186.76939653 -35.51950787 184.55771265 -35.51552677 182.345891 C-35.51987905 180.74681327 -35.52506391 179.14773763 -35.53101444 177.54866505 C-35.5443616 173.22206824 -35.5449878 168.89555902 -35.54245114 164.56894565 C-35.54137832 160.94845073 -35.54627286 157.32797331 -35.55105656 153.70748216 C-35.56213738 145.16050606 -35.56259747 136.61357392 -35.5565424 128.06659412 C-35.55050592 119.26995904 -35.56280859 110.47348403 -35.58411247 101.67687625 C-35.60176815 94.10631934 -35.6077235 86.5358132 -35.60447472 78.96523649 C-35.60266772 74.45173367 -35.60523935 69.938345 -35.61918926 65.42486095 C-35.63182739 61.17712183 -35.62976734 56.92963087 -35.61677837 52.68189526 C-35.61442585 51.13039024 -35.61709933 49.57886744 -35.6254015 48.02738285 C-35.69419814 34.16194481 -34.06688645 21.76808597 -24.42446232 11.13031483 C-17.75676285 4.89365856 -9.29423364 0.02284509 0 0 Z " fill="#6BF4C1" transform="translate(47.24086856842041,6.865778923034668)"/>
<path d="M0 0 C20.72317424 -0.11687435 41.44629402 -0.20500832 62.16973114 -0.25906086 C71.79230272 -0.28482708 81.41466935 -0.31994735 91.03710938 -0.37719727 C99.42541407 -0.42708069 107.81357031 -0.45930252 116.20201921 -0.47044247 C120.64247042 -0.47695289 125.08249697 -0.49222101 129.52281189 -0.52865028 C133.705668 -0.562688 137.88792614 -0.57303742 142.07090759 -0.56553841 C143.60273492 -0.5669095 145.13458306 -0.57679605 146.66629028 -0.59602737 C161.07468171 -0.76799795 161.07468171 -0.76799795 166.50349522 3.49464035 C172.11656454 9.14092239 172.4695523 13.93352197 172.55322266 21.66665649 C172.54669678 22.9380246 172.5401709 24.2093927 172.53344727 25.51928711 C172.54051308 26.88664172 172.54926088 28.25398851 172.55955505 29.62132263 C172.58198546 33.3198035 172.57912437 37.01785514 172.57023358 40.71637797 C172.56510965 43.81023811 172.57242764 46.90401858 172.57970566 49.9978705 C172.5966846 57.29967709 172.5931593 64.60127459 172.57641602 71.90307617 C172.55949633 79.42238656 172.57533121 86.94111634 172.6076389 94.46036333 C172.63437561 100.92940931 172.64159985 107.398275 172.63312382 113.86737067 C172.62820644 117.72527396 172.63034513 121.58282805 172.65091133 125.44068718 C172.66933312 129.06974682 172.6632321 132.69797457 172.63871193 136.32699013 C172.63135676 138.28393989 172.64850918 140.24093438 172.66653442 142.19781494 C172.59018652 149.31050482 171.9770785 154.63767221 167 160 C160.34801285 165.31840158 152.39406231 164.52426235 144.25 164.5 C141.65103205 164.49234848 139.0519395 164.50199006 136.453125 164.53125 C135.31004883 164.52673828 134.16697266 164.52222656 132.98925781 164.51757812 C129.96318824 164.80265056 129.96318824 164.80265056 127.63476562 166.51269531 C125.34574287 169.99545575 125.39709274 173.22901155 125.390625 177.265625 C125.37408875 178.05902283 125.35755249 178.85242065 125.34051514 179.66986084 C125.29204384 182.19665269 125.27066713 184.72284281 125.25 187.25 C125.22183943 188.96617609 125.19191188 190.68232416 125.16015625 192.3984375 C125.08628564 196.59890878 125.03670613 200.7990462 125 205 C120.48937069 201.27873082 116.38628756 197.42691995 112.5 193.0625 C106.10655412 186.00680547 99.39389522 179.29179761 92.61767578 172.60546875 C91.12584855 171.12489889 89.65435952 169.62641792 88.18359375 168.125 C85.02392217 165.05011388 83.39919992 164.87522955 79.10580444 164.87542725 C78.07126129 164.87286423 77.03671814 164.87030121 75.9708252 164.86766052 C74.83109253 164.86976028 73.69135986 164.87186005 72.51708984 164.87402344 C71.32020538 164.8721553 70.12332092 164.87028717 68.89016724 164.86836243 C66.28301712 164.86435018 63.67591584 164.86200925 61.06876755 164.86190033 C56.94136313 164.86076022 52.81404823 164.8479221 48.68667603 164.83233643 C47.98999168 164.82976357 47.29330733 164.82719072 46.57551134 164.8245399 C45.15059782 164.81927303 43.72568438 164.81398755 42.300771 164.80868387 C32.69122312 164.77359201 23.08178524 164.7470175 13.47216797 164.74951172 C6.99179594 164.75110332 0.51172827 164.73499191 -5.96854627 164.69880509 C-9.39618579 164.68038685 -12.8233175 164.67096495 -16.25099564 164.68328094 C-20.08137706 164.69290201 -23.91045855 164.67171675 -27.74072266 164.64355469 C-29.43210358 164.65884972 -29.43210358 164.65884972 -31.15765381 164.67445374 C-37.98403822 164.58458557 -42.78285305 163.5944401 -48 159 C-51 154.96875 -51 154.96875 -51 152 C-49.06060547 151.97873047 -49.06060547 151.97873047 -47.08203125 151.95703125 C-33.07205116 151.64251874 -21.37622054 150.39496885 -10.8671875 140.09765625 C-2.43763021 130.62763059 -0.5512473 120.24593057 -0.56762695 107.84912109 C-0.5574353 106.67723236 -0.54724365 105.50534363 -0.53674316 104.29794312 C-0.50674874 100.45639175 -0.49736769 96.61509031 -0.48828125 92.7734375 C-0.47142452 90.09728248 -0.45341669 87.42115988 -0.43388367 84.74502563 C-0.39038111 78.44134262 -0.36173484 72.13768515 -0.33856028 65.83389819 C-0.31142095 58.65113957 -0.26751524 51.46851316 -0.22227156 44.28584933 C-0.12965834 29.5239779 -0.0578714 14.76204955 0 0 Z " fill="#EAB877" transform="translate(315,86)"/>
<path d="M0 0 C0.84416224 -0.00445784 1.68832447 -0.00891569 2.55806738 -0.01350862 C3.94174959 -0.01323207 3.94174959 -0.01323207 5.35338497 -0.01294994 C6.33726112 -0.01662663 7.32113726 -0.02030332 8.33482784 -0.02409142 C11.64106254 -0.03512948 14.94726582 -0.03897234 18.2535162 -0.04278088 C20.62046566 -0.04904548 22.98741414 -0.05569228 25.35436153 -0.0626936 C32.46441075 -0.08192117 39.57446055 -0.09252242 46.6845285 -0.10142139 C50.03580738 -0.10580793 53.38708468 -0.11117384 56.73836231 -0.11641026 C67.88436111 -0.13342166 79.03035893 -0.14791429 90.17636871 -0.155159 C93.06764445 -0.15706878 95.95892018 -0.15898913 98.85019588 -0.16094494 C99.56877724 -0.16142868 100.28735859 -0.16191242 101.02771514 -0.16241082 C112.65982657 -0.17070537 124.29183497 -0.19603291 135.92390145 -0.22852562 C147.87622442 -0.26163965 159.82849511 -0.27961173 171.78086418 -0.28280324 C178.48763062 -0.28496447 185.19422396 -0.29410214 191.90094852 -0.31926441 C198.21370204 -0.34256557 204.52618575 -0.34676989 210.83897114 -0.33650303 C213.15160806 -0.33600805 215.46425836 -0.34231731 217.77685452 -0.35605907 C232.65111181 -0.43947377 244.64218943 -0.29799375 256.46225643 9.79047108 C267.96504166 21.52800702 268.94269349 35.06377849 268.82163143 50.63422108 C268.81711971 51.74281483 268.81260799 52.85140858 268.80795956 53.99359608 C268.79626301 56.70719507 268.77987229 59.42067868 268.75913143 62.13422108 C269.56935694 62.1314557 270.37958244 62.12869032 271.21436024 62.12584114 C290.95424615 62.05950786 310.69411278 62.00990478 330.4340868 61.97878456 C339.98030132 61.96333398 349.52644132 61.9422791 359.07260799 61.90790272 C367.39574139 61.87794492 375.71882079 61.85863293 384.04200661 61.85195559 C388.44663214 61.84805413 392.85110323 61.83892301 397.25567913 61.81703091 C401.40725158 61.79656482 405.55860699 61.79040759 409.71022511 61.79489803 C411.22829082 61.79407734 412.74636431 61.7881722 414.26438618 61.77660465 C427.72896588 61.67909459 437.54252036 63.202909 447.44663143 72.76312733 C454.07060544 79.90045933 456.87089907 88.26711601 456.89957333 97.90721607 C456.90528347 99.06079105 456.91099361 100.21436604 456.91687679 101.40289783 C456.91799465 102.65961292 456.91911251 103.91632801 456.92026424 105.21112537 C456.92489641 106.5552277 456.9299216 107.89932872 456.93530941 109.24342823 C456.94839873 112.88831496 456.95487181 116.5331833 456.95932007 120.17808986 C456.96225695 122.45884206 456.96636295 124.73958931 456.97082424 127.02033901 C456.98449125 134.16654139 456.99416129 141.31273235 456.99802613 148.45894688 C457.00250234 156.68887286 457.02003318 164.91863238 457.04902673 173.14850777 C457.07069667 179.52238859 457.08073327 185.89622276 457.08206725 192.27013999 C457.08311166 196.0710617 457.08894123 199.87182677 457.10688686 203.67270947 C457.12345935 207.25229295 457.12547904 210.8316036 457.11674786 214.41121197 C457.11561983 216.33679546 457.12926686 218.26237028 457.14350033 220.1879015 C457.08583458 232.27857269 454.47744871 241.90034948 446.13022518 250.88812733 C437.78547499 258.6133137 428.42775208 260.3093924 417.44663143 260.19672108 C416.6106744 260.19220936 415.77471737 260.18769764 414.91342831 260.1830492 C412.86196494 260.17132655 410.8105387 260.15339311 408.75913143 260.13422108 C408.76801388 260.7119376 408.77689632 261.28965412 408.78604794 261.8848772 C408.87461075 267.90319382 408.93490266 273.92132501 408.97885799 279.94012928 C408.99896083 282.18564849 409.02624748 284.43111543 409.06088924 286.67645741 C409.10946453 289.90599948 409.1321138 293.13484882 409.14975643 296.36468983 C409.17040157 297.36695103 409.19104671 298.36921223 409.21231747 299.40184498 C409.21371378 303.74895125 409.16340904 306.41627207 406.99985409 310.25848866 C403.87177394 312.87703733 402.09898214 313.00872261 398.13120174 312.77484608 C393.5034764 311.52503635 390.75918169 308.09694867 387.63413143 304.63422108 C386.97026424 303.93812733 386.30639706 303.24203358 385.62241268 302.52484608 C382.43015685 299.15142505 379.36061268 295.68351148 376.32944393 292.16547108 C372.35993788 287.5974511 368.07241076 283.37512995 363.75913143 279.13422108 C358.18200773 273.65067328 352.84945079 268.07292699 347.75913143 262.13422108 C346.14877817 260.52386782 344.41699071 261.0027858 342.18846798 260.99619007 C340.70615688 260.98801006 340.70615688 260.98801006 339.19390011 260.9796648 C338.10046795 260.97862247 337.00703579 260.97758015 335.88046932 260.97650623 C334.73571133 260.97142551 333.59095333 260.9663448 332.4115057 260.96111012 C329.91459141 260.95037673 327.41766733 260.9417683 324.92073917 260.93499088 C320.96507985 260.92323392 317.00953129 260.90378653 313.05391598 260.88187122 C301.80294419 260.81994363 290.55197529 260.76606518 279.30087948 260.73285389 C273.09192691 260.71444545 266.88311601 260.68542413 260.67426771 260.64484918 C257.39085737 260.62386699 254.10766249 260.61002623 250.82418156 260.60604191 C247.15002667 260.60111436 243.47639275 260.57790485 239.80234432 260.55072498 C238.1895232 260.55523418 238.1895232 260.55523418 236.54411983 260.55983448 C224.89464116 260.43233909 216.48347113 257.62507676 208.07163143 249.50531483 C203.67114626 244.76379205 199.75913143 238.75722207 199.75913143 232.13422108 C186.24949645 231.84637749 172.74234656 231.65809481 159.22969913 231.59275341 C152.95298088 231.55936129 146.68035645 231.49322494 140.40512753 231.34906483 C134.33497195 231.21087348 128.26986598 231.16286544 122.19821453 231.1742487 C119.89611806 231.16331722 117.59392798 231.12127259 115.29304028 231.04588413 C103.55517731 230.68152794 94.85256089 230.992358 85.97308826 239.32133389 C82.35260007 243.09820888 79.03535423 247.05902113 75.75913143 251.13422108 C74.48318047 252.62109638 73.19952052 254.101403 71.9069891 255.57388783 C71.35442755 256.20461138 70.801866 256.83533493 70.23256016 257.48517132 C68.42177417 259.51178865 66.5422283 261.44928125 64.60288143 263.35297108 C63.89002987 264.05808826 63.17717831 264.76320545 62.44272518 265.48968983 C60.98699601 266.91937733 59.53126685 268.34906483 58.07553768 269.77875233 C53.97894314 273.83089919 50.08075512 277.97245747 46.32211971 282.33978748 C44.28644743 284.67689952 42.14164551 286.88439531 39.94663143 289.07172108 C38.82321346 290.19900623 38.82321346 290.19900623 37.67710018 291.34906483 C34.52834893 294.27977628 32.07498757 294.3509463 27.82944393 294.65765858 C24.58507107 293.83738318 23.58332778 291.85255976 21.75913143 289.13422108 C21.27811337 286.36900806 21.27811337 286.36900806 21.30502987 283.33417225 C21.30533199 282.19336704 21.30563412 281.05256184 21.3059454 279.87718678 C21.32659054 278.65618778 21.34723568 277.43518879 21.36850643 276.17718983 C21.37416622 274.91909 21.37982601 273.66099018 21.38565731 272.36476612 C21.40423099 269.03199323 21.44012027 265.70032892 21.48447323 262.36786366 C21.52551022 258.96260592 21.54368617 255.55723333 21.56381893 252.1517992 C21.60790013 245.47896815 21.67482447 238.80665858 21.75913143 232.13422108 C21.10134197 232.1427309 20.44355251 232.15124073 19.76583004 232.16000843 C16.75190463 232.1940304 13.73801982 232.21500415 10.72397518 232.23578358 C9.68930111 232.2493993 8.65462704 232.26301502 7.58859921 232.27704334 C-3.8763924 232.3362704 -13.69691838 230.30178579 -22.24086857 222.13422108 C-31.9695998 212.48556171 -35.41281282 202.59553835 -35.51719797 188.98121512 C-35.52326449 186.76939653 -35.51950787 184.55771265 -35.51552677 182.345891 C-35.51987905 180.74681327 -35.52506391 179.14773763 -35.53101444 177.54866505 C-35.5443616 173.22206824 -35.5449878 168.89555902 -35.54245114 164.56894565 C-35.54137832 160.94845073 -35.54627286 157.32797331 -35.55105656 153.70748216 C-35.56213738 145.16050606 -35.56259747 136.61357392 -35.5565424 128.06659412 C-35.55050592 119.26995904 -35.56280859 110.47348403 -35.58411247 101.67687625 C-35.60176815 94.10631934 -35.6077235 86.5358132 -35.60447472 78.96523649 C-35.60266772 74.45173367 -35.60523935 69.938345 -35.61918926 65.42486095 C-35.63182739 61.17712183 -35.62976734 56.92963087 -35.61677837 52.68189526 C-35.61442585 51.13039024 -35.61709933 49.57886744 -35.6254015 48.02738285 C-35.69419814 34.16194481 -34.06688645 21.76808597 -24.42446232 11.13031483 C-17.75676285 4.89365856 -9.29423364 0.02284509 0 0 Z M-13.11586857 24.13422108 C-13.67016544 24.79422108 -14.22446232 25.45422108 -14.79555607 26.13422108 C-17.93065892 30.47252556 -18.49531136 33.48871705 -18.52175236 38.8879137 C-18.5276946 39.56622899 -18.53363685 40.24454427 -18.53975916 40.94341457 C-18.55709724 43.21556294 -18.56014651 45.4875001 -18.56313419 47.75970936 C-18.57239335 49.38937802 -18.58244305 51.01904236 -18.59322453 52.64870167 C-18.61945504 57.07667934 -18.63235964 61.50459638 -18.64124584 65.9326396 C-18.64711182 68.70134799 -18.65532241 71.47003989 -18.66425419 74.23873997 C-18.69160318 82.90773062 -18.71093536 91.5766835 -18.71865797 100.24571431 C-18.72761125 110.24056208 -18.7626696 120.23486171 -18.82065916 130.22954285 C-18.86396067 137.96221119 -18.88407022 145.69472572 -18.88674021 153.42751396 C-18.88883203 158.0423779 -18.90055362 162.65672655 -18.93637943 167.27146244 C-18.96945842 171.61700648 -18.97359685 175.96165127 -18.95610142 180.30727673 C-18.95456668 181.89631092 -18.96316707 183.4853946 -18.98301792 185.07430553 C-19.09219467 194.36292101 -18.55027301 201.81993615 -12.24086857 209.13422108 C-6.65964851 214.21293835 -1.76963228 215.27252288 5.56772518 215.34515858 C7.13479302 215.37322151 8.70185018 215.40188594 10.26889706 215.43109608 C12.73544739 215.47238137 15.20179711 215.50927618 17.66855526 215.53558826 C20.05202817 215.56320617 22.4345999 215.60906728 24.81772518 215.65765858 C25.55325115 215.66091145 26.28877712 215.66416431 27.04659176 215.66751575 C31.29465258 215.7693996 33.69913943 216.14700793 36.75913143 219.13422108 C37.27811337 221.27928638 37.27811337 221.27928638 37.30502987 223.78925037 C37.3247485 224.72999912 37.34446712 225.67074787 37.36478329 226.64000416 C37.36601192 227.65258793 37.36724056 228.6651717 37.36850643 229.70843983 C37.38504269 230.7474091 37.40157894 231.78637836 37.41861629 232.85683155 C37.46724 236.17852065 37.48849957 239.4997515 37.50913143 242.82172108 C37.53727901 245.07239535 37.56720472 247.32304815 37.59897518 249.5736742 C37.67300253 255.09377289 37.72456069 260.61374194 37.75913143 266.13422108 C38.8680514 265.19811535 39.97490565 264.25956226 41.08090878 263.32001209 C41.69751369 262.79762455 42.31411861 262.27523701 42.94940853 261.73701954 C45.63348597 259.35984059 48.00028493 256.74426727 50.38413143 254.07172108 C54.65720883 249.35568188 59.04265897 244.79242836 63.57163143 240.32172108 C67.57944048 236.36127599 71.41444644 232.34639467 75.06772518 228.05218983 C83.85749209 218.08504075 83.85749209 218.08504075 87.75913143 216.13422108 C89.69234906 216.03912909 91.62890488 216.00957381 93.5644598 216.00964832 C94.80094265 216.0070853 96.0374255 216.00452229 97.31137753 216.0018816 C98.68930729 216.00395173 100.06723698 216.00607448 101.44516659 216.00824451 C102.89059154 216.00685011 104.33601609 216.00495104 105.78143978 216.0025835 C108.89931854 215.99808115 112.01718411 215.9962303 115.13506603 215.99612141 C120.06898242 215.99498201 125.0028238 215.98214952 129.93671322 215.9665575 C130.7692212 215.96398465 131.60172918 215.9614118 132.45946467 215.95876098 C134.1621835 215.95349411 135.86490228 215.94820863 137.56762099 215.94290495 C149.0561111 215.90779755 160.54450903 215.88124002 172.03305721 215.8837328 C179.77911258 215.88532319 187.52491307 215.86924106 195.27088678 215.83302617 C199.36919713 215.81458931 203.46708213 215.80520285 207.56542492 215.81750202 C211.42505121 215.82897167 215.28391762 215.8171592 219.14344311 215.78786755 C220.55589584 215.78124782 221.96841859 215.78305805 223.38084316 215.79416561 C232.99419909 215.86346073 238.62932749 214.71935472 245.78256893 208.32562733 C246.22858456 207.78808826 246.67460018 207.2505492 247.13413143 206.69672108 C247.59561581 206.16176014 248.05710018 205.6267992 248.53256893 205.07562733 C251.50354118 200.37316488 252.01121816 195.70230292 252.02655697 190.24045277 C252.03335364 189.23667585 252.03335364 189.23667585 252.04028761 188.21262062 C252.05288844 185.98345382 252.05131409 183.7545327 252.04965878 181.52533436 C252.05564669 179.92168332 252.06245285 178.31803515 252.070014 176.71439075 C252.08765341 172.36722463 252.09236848 168.02013728 252.09364557 163.67293882 C252.09506878 160.95482315 252.09934157 158.2367274 252.10464001 155.51861668 C252.12313275 146.02995759 252.13131148 136.54135462 252.1297369 127.05267811 C252.12853538 118.21735898 252.14964176 109.38228408 252.18122423 100.54702675 C252.2074002 92.95277674 252.21810366 85.35860644 252.21682608 77.76431167 C252.21631688 73.23238747 252.221977 68.70068045 252.24318218 64.16880131 C252.26258715 59.90545097 252.26267377 55.64252451 252.24814892 51.37915897 C252.24606258 49.81832731 252.2507513 48.25746895 252.26286983 46.69668293 C252.32914097 37.56706757 252.22336029 30.43094017 246.08335018 23.14593983 C245.54323299 22.70894764 245.00311581 22.27195545 244.44663143 21.82172108 C243.91424862 21.37183826 243.38186581 20.92195545 242.83335018 20.45843983 C236.52099677 16.42851929 231.39370849 15.69686552 224.04967403 15.74654102 C223.08970278 15.74115549 222.12973153 15.73576995 221.14067024 15.73022121 C217.93336238 15.71594714 214.72646756 15.72304412 211.5191412 15.73016834 C209.21584396 15.72446452 206.91254956 15.71750021 204.60925961 15.70937061 C198.35929554 15.69142594 192.10947177 15.69261007 185.85948968 15.698313 C180.64069289 15.70140283 175.42192313 15.69531469 170.20313019 15.68927425 C157.18751065 15.67442341 144.17196992 15.67804616 131.15635066 15.69013756 C119.8618822 15.70006975 108.56757756 15.68712825 97.27313436 15.66320337 C85.66536741 15.63880072 74.05768354 15.62960686 62.44989151 15.63585609 C55.93722855 15.63922755 49.42470095 15.63679779 42.91205692 15.61960506 C36.78802231 15.60414382 30.66430065 15.60808277 24.54027843 15.62691021 C22.294116 15.63059826 20.04793041 15.6274814 17.80178928 15.61702442 C14.7326895 15.60382814 11.66462779 15.61535072 8.59557247 15.63301563 C7.70927719 15.62341063 6.82298191 15.61380562 5.9098292 15.60390955 C-1.82298499 15.69532273 -8.11964981 18.01445073 -13.11586857 24.13422108 Z M267.75913143 79.13422108 C267.75674308 79.74345102 267.75435472 80.35268097 267.751894 80.98037243 C267.69262944 95.8384486 267.61700656 110.69637483 267.52341652 125.55427074 C267.47854614 132.73959729 267.43911158 139.92487524 267.41269588 147.1102953 C267.38964453 153.37675002 267.35616764 159.64304983 267.31042987 165.90938151 C267.28659313 169.22409153 267.26935781 172.53861783 267.26151752 175.85340977 C267.25185588 179.56361723 267.22377012 183.27327171 267.19150448 186.98334217 C267.19293957 188.06947803 267.19437466 189.1556139 267.19585323 190.27466297 C267.0425194 202.79076829 263.39552772 211.5140374 255.20444393 220.91937733 C244.72346221 231.11356601 230.40368215 230.98457994 216.75913143 231.13422108 C218.57886604 236.11762272 220.99094668 239.43810869 225.60143375 242.26303005 C228.17760111 243.3031822 230.13070084 243.38474584 232.90729427 243.38577747 C233.94747707 243.39116032 234.98765987 243.39654316 236.05936337 243.40208912 C237.19504757 243.39796513 238.33073177 243.39384113 239.50083065 243.38959217 C240.70121975 243.39321262 241.90160885 243.39683308 243.13837337 243.40056324 C246.42772663 243.40926128 249.71696577 243.40947236 253.00632524 243.40721178 C256.45221234 243.40796007 259.89802693 243.42302681 263.34387875 243.43759632 C275.07846165 243.4845926 286.8130328 243.50856125 298.54770565 243.51508045 C305.03096099 243.51883423 311.51402292 243.5368886 317.99719536 243.57017481 C321.42580753 243.58705888 324.85406793 243.59621953 328.2827177 243.58723545 C332.10832343 243.58017891 335.93311443 243.59742002 339.75864315 243.62006092 C341.45609676 243.60780224 341.45609676 243.60780224 343.18784237 243.59529591 C350.63584458 243.67379445 354.28612711 244.61645193 359.57749081 249.97601795 C360.08086971 250.59541248 360.58424862 251.21480701 361.10288143 251.85297108 C364.91249283 256.37426812 369.04330999 260.49381684 373.25913143 264.63422108 C378.1032723 269.39170468 382.7832536 274.17414226 387.13608456 279.39008045 C388.86227373 281.24505871 390.69350324 282.67415164 392.75913143 284.13422108 C392.77314999 282.52982166 392.77314999 282.52982166 392.78745174 280.89301014 C392.82736656 276.91928137 392.89312864 272.94632564 392.96665096 268.97308826 C392.9948521 267.25443939 393.01607097 265.53566102 393.03012753 263.81683826 C393.05156976 261.3438336 393.09822299 258.87238433 393.14975643 256.39984608 C393.15098507 255.63303516 393.15221371 254.86622425 393.15347958 254.07617664 C393.2458608 250.70091218 393.5223145 248.49453932 395.39389706 245.64691639 C398.49634405 243.66273374 400.54099539 243.65098062 404.21225643 243.66547108 C406.10137753 243.64420155 406.10137753 243.64420155 408.02866268 243.62250233 C410.66668365 243.63026883 413.30470449 243.63808078 415.94272518 243.64593983 C426.04367303 243.62791011 426.04367303 243.62791011 434.75913143 239.13422108 C440.68327904 232.74661971 440.47247673 225.81522567 440.40610409 217.50140858 C440.41288962 216.1339041 440.421798 214.76640877 440.43265438 213.39893055 C440.45534396 209.70453978 440.446655 206.01085136 440.43075895 202.31644917 C440.41804583 198.43911907 440.42985502 194.56184666 440.43768978 190.68451405 C440.44677069 184.17480205 440.43483965 177.66537424 440.4109869 171.15570545 C440.38377834 163.64374165 440.39259363 156.13245651 440.42011893 148.62050915 C440.44285372 142.15567396 440.44598885 135.69104235 440.43292558 129.22618008 C440.42515494 125.3716632 440.42402314 121.51746469 440.44060802 117.66296864 C440.45511767 114.0379706 440.44491479 110.41384225 440.41613674 106.78893757 C440.40643837 104.83440291 440.4211707 102.87979417 440.43677425 100.92529774 C440.35124297 93.78258054 439.8321023 88.44785982 434.75913143 83.13422108 C428.32262538 77.54218257 420.35564127 78.5991773 412.2769537 78.68011951 C410.69958684 78.6812488 409.12221789 78.68061256 407.54485226 78.67834949 C403.27662223 78.67720456 399.0088443 78.70067794 394.74071908 78.72864532 C390.27511386 78.75369584 385.80949761 78.75600385 381.34383297 78.76074696 C372.89371663 78.77316602 364.44380795 78.80597312 355.99378294 78.84614491 C346.37110028 78.89089593 336.74840757 78.91285803 327.12564671 78.93292665 C307.3366925 78.97470673 287.54792506 79.04503796 267.75913143 79.13422108 Z " fill="#010101" transform="translate(47.24086856842041,6.865778923034668)"/>
<path d="M0 0 C12.23063804 10.60354269 20.00761758 23.51055189 21.30078125 39.890625 C21.38199219 40.88835937 21.38199219 40.88835937 21.46484375 41.90625 C22.03813709 55.97799557 17.29886769 69.55332463 7.95117188 79.99560547 C5.77766969 82.33956477 3.55712577 84.62625078 1.30078125 86.890625 C3.53831987 88.38231741 5.6136457 89.60836123 7.99609375 90.80859375 C16.01067816 94.90346464 23.50792665 98.90924821 30.30078125 104.890625 C31.08324219 105.53128906 31.86570313 106.17195313 32.671875 106.83203125 C50.85296578 122.23348569 64.15325029 145.92264555 66.30078125 169.890625 C66.34973219 173.56806453 66.35003165 176.76011648 63.72766876 179.58556557 C60.38093675 181.38527164 57.30125745 181.3056035 53.59558105 181.27157593 C52.81502712 181.2762559 52.03447318 181.28093587 51.23026609 181.28575766 C48.61232274 181.29773262 45.99490045 181.2882408 43.37695312 181.27880859 C41.50110061 181.28287319 39.62525048 181.28821443 37.74940491 181.29473877 C32.65236876 181.30843151 27.5555145 181.30310562 22.45847511 181.29360151 C17.128521 181.28601507 11.79858264 181.2930477 6.46862793 181.29776001 C-2.48269451 181.30322052 -11.43394273 181.29601818 -20.38525391 181.28173828 C-30.73950094 181.26541122 -41.09357077 181.27069952 -51.44781351 181.2872175 C-60.33197501 181.30082393 -69.21608312 181.30275615 -78.10025167 181.29490149 C-83.40891011 181.29022034 -88.7174852 181.28961227 -94.02613831 181.29951096 C-99.01660536 181.30816606 -104.00684356 181.30218533 -108.99728584 181.28482819 C-110.83069542 181.28085556 -112.66412419 181.28201061 -114.49752617 181.28861618 C-116.9966185 181.29679118 -119.49497345 181.28655947 -121.99401855 181.27157593 C-122.72280983 181.27826809 -123.45160111 181.28496026 -124.20247698 181.29185522 C-127.25357791 181.25627296 -129.41476131 181.04229675 -132.12805939 179.59557533 C-134.70916652 176.79467584 -134.71215721 173.53199295 -134.69921875 169.890625 C-134.4266614 167.01310075 -133.86700849 164.26321169 -133.19921875 161.453125 C-133.01979736 160.67960693 -132.84037598 159.90608887 -132.65551758 159.10913086 C-126.46123073 133.97751418 -111.24509834 111.52656609 -89.26171875 97.578125 C-82.94846959 93.87119299 -76.41734224 90.79338212 -69.69921875 87.890625 C-70.56546875 86.900625 -71.43171875 85.910625 -72.32421875 84.890625 C-82.8977844 72.47601498 -90.6460298 59.13056656 -89.921875 42.16015625 C-88.5363464 28.03748752 -84.66571537 17.95784369 -75.69921875 6.890625 C-74.91611328 5.91609375 -74.91611328 5.91609375 -74.1171875 4.921875 C-55.49325255 -15.82377405 -21.26697311 -16.61963166 0 0 Z " fill="#010101" transform="translate(142.69921875,324.109375)"/>
<path d="M0 0 C0.94939453 0.65742188 0.94939453 0.65742188 1.91796875 1.328125 C11.68045818 8.74493619 18.16401564 21.00742352 20.57421875 32.8125 C22.72936442 48.94643456 20.01246543 63.24637977 11 77 C7.98963785 80.91987583 5.12419831 84.25053446 1 87 C1.76908691 87.38369751 1.76908691 87.38369751 2.55371094 87.77514648 C29.95177185 101.54472726 51.82264343 120.26683543 62 150 C68.02072346 169.46686179 68.02072346 169.46686179 66 177 C64.45074463 179.09203339 64.45074463 179.09203339 62 181 C59.28343869 181.39298743 56.97176274 181.540998 54.25683594 181.50793457 C53.47219845 181.51417453 52.68756096 181.5204145 51.87914658 181.52684355 C49.2472513 181.54281156 46.61627731 181.53015481 43.984375 181.51757812 C42.098668 181.52299756 40.21296523 181.53011922 38.32727051 181.53881836 C33.20332996 181.55707583 28.07971105 181.54997415 22.95576477 181.53730202 C17.59777956 181.52718692 12.23982221 181.53656355 6.88183594 181.54284668 C-2.11658685 181.55012743 -11.11487838 181.54052414 -20.11328125 181.52148438 C-30.52210635 181.49971486 -40.93061807 181.50676592 -51.33943558 181.52879 C-60.2703177 181.54693179 -69.20110538 181.54950828 -78.13199997 181.53903532 C-83.46862679 181.53279369 -88.80510623 181.53198318 -94.14172363 181.54518127 C-99.15852047 181.55672137 -104.17491261 181.54874768 -109.19166565 181.52560425 C-111.03474759 181.52030731 -112.87786349 181.52184771 -114.72093201 181.53065491 C-117.23336247 181.54155536 -119.744489 181.52791444 -122.25683594 181.50793457 C-122.98951817 181.51685746 -123.72220039 181.52578034 -124.47708511 181.53497362 C-127.92120634 181.48169601 -129.69629813 181.23643958 -132.45074463 179.09203339 C-135.29217618 175.25511291 -134.55027853 171.57809044 -134 167 C-130.32040742 145.42321746 -121.15953953 127.86087054 -106 112 C-105.39929688 111.32453125 -104.79859375 110.6490625 -104.1796875 109.953125 C-94.59714025 99.58240287 -81.64998773 92.88643497 -69 87 C-70.4540625 85.948125 -70.4540625 85.948125 -71.9375 84.875 C-81.72218415 76.40289543 -87.93704024 63.62475492 -89.21435547 50.85742188 C-90.39954309 33.85865617 -86.24300134 19.47750564 -75.25 6.3125 C-55.42493175 -14.93667523 -23.04116926 -17.04518577 0 0 Z " fill="#000100" transform="translate(429,324)"/>
<path d="M0 0 C7.65872576 1.27645429 13.42369021 5.33013755 18.2421875 11.34765625 C24.7164877 21.12619774 25.06322207 32.04628469 23.1015625 43.3671875 C22.16568003 47.52769471 21.09841772 51.57974685 19.75 55.625 C20.85400146 55.60405273 21.95800293 55.58310547 23.09545898 55.56152344 C27.22716077 55.48862393 31.35880677 55.4430204 35.4909668 55.40527344 C37.27263986 55.38527095 39.05424823 55.35805977 40.83569336 55.32324219 C59.75690852 54.96293901 59.75690852 54.96293901 66.75 59.625 C68.1421875 60.49125 68.1421875 60.49125 69.5625 61.375 C73.7162711 65.64745027 75.70297674 69.18762758 75.8203125 75.26953125 C75.75457031 77.23986328 75.75457031 77.23986328 75.6875 79.25 C75.30733887 85.23345696 75.30733887 85.23345696 78.125 90.1875 C78.99125 90.991875 79.8575 91.79625 80.75 92.625 C83.01041254 97.46874116 83.49823705 102.36061792 82.75 107.625 C81.68534885 110.47243962 80.28498192 113.00880818 78.75 115.625 C77.54838827 117.64699107 77.54838827 117.64699107 76.75 119.625 C77.40061095 121.29799959 78.07033324 122.96359237 78.75 124.625 C79.58487576 131.66181001 77.77115682 136.79332232 73.75 142.625 C71.17275437 145.0971648 68.48735338 147.625 64.75 147.625 C64.78480469 148.33785156 64.81960937 149.05070313 64.85546875 149.78515625 C65.08469637 157.89544768 63.95470784 164.04053784 58.28994751 170.28392029 C51.06467882 176.57612258 42.16727342 176.2028183 33.1015625 176.12109375 C31.68020555 176.12124924 30.25884818 176.1227465 28.8374939 176.12550354 C25.86363882 176.1268824 22.89026889 176.11443252 19.91650391 176.09155273 C16.1634988 176.06342486 12.41130594 176.06612357 8.65824223 176.0782423 C-12.53715572 176.13314286 -32.22126136 175.19939593 -52.25 167.625 C-52.37890625 168.39457031 -52.5078125 169.16414062 -52.640625 169.95703125 C-53.42846817 173.40637024 -54.79409793 175.10087843 -57.25 177.625 C-63.24981722 180.63373475 -69.62655889 179.9933222 -76.1875 180 C-77.45013672 180.02449219 -78.71277344 180.04898438 -80.01367188 180.07421875 C-91.72643433 180.11130401 -91.72643433 180.11130401 -96.25 175.625 C-100.66992955 170.35005263 -100.82529595 166.25367546 -100.76757812 159.67578125 C-100.77809204 158.19662735 -100.77809204 158.19662735 -100.78881836 156.68759155 C-100.80638236 153.43727217 -100.79478081 150.18782781 -100.78125 146.9375 C-100.78394536 144.67358229 -100.78782815 142.40966571 -100.79284668 140.14575195 C-100.79873959 135.40467286 -100.79018512 130.66389554 -100.77148438 125.92285156 C-100.74869534 119.84977701 -100.76181947 113.77740958 -100.78577423 107.70436096 C-100.80023757 103.03058558 -100.79562367 98.35697748 -100.78526306 93.68319702 C-100.78259728 91.44412146 -100.78586029 89.20503065 -100.79518127 86.9659729 C-100.8053553 83.83497974 -100.78983281 80.7051271 -100.76757812 77.57421875 C-100.77567505 76.65144135 -100.78377197 75.72866394 -100.79211426 74.77792358 C-100.71920857 69.23325106 -99.96911876 66.01300222 -96.25 61.625 C-92.41447212 58.58752166 -89.45874598 58.24076692 -84.62890625 58.2265625 C-83.36369141 58.22269531 -82.09847656 58.21882813 -80.79492188 58.21484375 C-78.82362305 58.23224609 -78.82362305 58.23224609 -76.8125 58.25 C-74.84700195 58.23259766 -74.84700195 58.23259766 -72.84179688 58.21484375 C-70.94204102 58.22064453 -70.94204102 58.22064453 -69.00390625 58.2265625 C-67.27636108 58.23163818 -67.27636108 58.23163818 -65.51391602 58.23681641 C-60.51603892 58.83122321 -57.28154648 60.51201564 -53.875 64.1875 C-52.25 66.625 -52.25 66.625 -52.25 68.625 C-48.94589881 65.52740513 -46.15210864 62.26964597 -43.375 58.6875 C-38.44125672 52.46749218 -33.07501917 48.20131882 -26.625 43.625 C-15.53960996 35.63744498 -12.75111047 26.61026065 -10.3203125 13.59179688 C-8.9473826 6.93940958 -7.46322757 1.43523607 0 0 Z " fill="#030403" transform="translate(180.25,33.375)"/>
<path d="M0 0 C0.88429688 0.68835938 1.76859375 1.37671875 2.6796875 2.0859375 C14.99383698 12.40527149 25.38472465 28.27038093 29 44 C29 45.32 29 46.64 29 48 C-25.12 48 -79.24 48 -135 48 C-132.49771476 27.98171807 -120.01150962 10.68610653 -104.375 -1.6875 C-72.55005736 -24.42542317 -30.95344469 -24.16469964 0 0 Z " fill="#6BF3C1" transform="translate(448,441)"/>
<path d="M0 0 C3.20921003 3.20921003 3.23280997 6.32882874 3.375 10.6875 C3.33726362 16.29764114 2.40579544 21.12623671 0.75 26.4375 C0.54552246 27.09903076 0.34104492 27.76056152 0.13037109 28.44213867 C-0.97073885 31.73007128 -2.23663213 34.35324581 -4.171875 37.2421875 C-6.3395688 39.96080361 -6.3395688 39.96080361 -6 43.6875 C-4.87212099 47.42359921 -4.285221 48.09564771 -1 50 C1.56461113 50.45514091 1.56461113 50.45514091 4.37939453 50.40063477 C5.45375763 50.41397354 6.52812073 50.42731232 7.63504028 50.4410553 C9.36643753 50.44122902 9.36643753 50.44122902 11.1328125 50.44140625 C12.32099579 50.45461411 13.50917908 50.46782196 14.73336792 50.48143005 C18.53060261 50.52236164 22.32759438 50.54401472 26.125 50.5625 C29.92947347 50.58624498 33.73371672 50.61428284 37.53805542 50.65428162 C39.90623953 50.67873889 42.27454642 50.69351566 44.64285278 50.69789124 C45.71091156 50.70807785 46.77897034 50.71826447 47.87939453 50.72875977 C48.82219269 50.73303482 49.76499084 50.73730988 50.73635864 50.74171448 C53 51 53 51 55 53 C54.43181818 58.56818182 54.43181818 58.56818182 53 60 C50.16415248 60.1232065 47.34890485 60.18613976 44.51171875 60.2109375 C42.75585013 60.23901121 40.99999088 60.26767571 39.24414062 60.296875 C36.46590485 60.33812499 33.68784293 60.37499675 30.90942383 60.40136719 C28.23481739 60.42897726 25.56101546 60.47485589 22.88671875 60.5234375 C22.05742355 60.52669037 21.22812836 60.52994324 20.373703 60.53329468 C16.85415009 60.60830831 14.58998656 60.67077152 11.47558594 62.40869141 C9.64620538 64.38154092 9.4868623 65.33755287 9.5625 68 C9.56378906 68.680625 9.56507813 69.36125 9.56640625 70.0625 C10.13123604 72.5864241 10.98986913 73.39320948 13 75 C15.13170805 75.44987826 15.13170805 75.44987826 17.515625 75.38476562 C18.42666992 75.39487671 19.33771484 75.40498779 20.27636719 75.41540527 C21.25766602 75.41238403 22.23896484 75.40936279 23.25 75.40625 C24.7644873 75.42250427 24.7644873 75.42250427 26.30957031 75.43908691 C29.53977876 75.473411 32.76963295 75.48895683 36 75.5 C40.2503429 75.51453001 44.49988979 75.54813559 48.75 75.59375 C49.73129883 75.59072876 50.71259766 75.58770752 51.72363281 75.58459473 C52.63467773 75.59470581 53.54572266 75.60481689 54.484375 75.61523438 C55.28584961 75.61728882 56.08732422 75.61934326 56.91308594 75.62145996 C59.53518707 76.09707622 60.45123829 76.85383638 62 79 C61.8125 82.125 61.8125 82.125 61 85 C58.64861868 86.17569066 57.21940673 86.13652717 54.59790039 86.15771484 C53.68677994 86.16797699 52.77565948 86.17823914 51.83692932 86.18881226 C50.85046921 86.19611359 49.86400909 86.20341492 48.84765625 86.2109375 C46.77147641 86.23899999 44.69530463 86.26766441 42.61914062 86.296875 C39.33602063 86.33819995 36.0530522 86.37507566 32.76977539 86.40136719 C29.60791714 86.42890082 26.44675016 86.47476686 23.28515625 86.5234375 C21.80850243 86.5283168 21.80850243 86.5283168 20.30201721 86.53329468 C18.93060829 86.55814438 18.93060829 86.55814438 17.53149414 86.58349609 C16.72700333 86.59158295 15.92251251 86.5996698 15.09364319 86.60800171 C12.49756291 87.09407261 11.60403182 87.93946713 10 90 C9.5285704 91.94457312 9.5285704 91.94457312 9.625 94 C9.61726563 94.680625 9.60953125 95.36125 9.6015625 96.0625 C10.1223069 98.59474728 11.00401928 99.3852123 13 101 C14.97520162 101.45507943 14.97520162 101.45507943 17.16430664 101.40063477 C17.99849625 101.41397354 18.83268585 101.42731232 19.69215393 101.4410553 C20.5890947 101.44117111 21.48603546 101.44128693 22.41015625 101.44140625 C23.33340195 101.45461411 24.25664764 101.46782196 25.20787048 101.48143005 C28.15944444 101.52236847 31.11070606 101.54401378 34.0625 101.5625 C37.01776999 101.58625349 39.97274426 101.61431094 42.92784119 101.65428162 C44.7673868 101.67871703 46.60708991 101.6935117 48.4467926 101.69789124 C49.27783005 101.70807785 50.10886749 101.71826447 50.96508789 101.72875977 C52.06404137 101.73517235 52.06404137 101.73517235 53.18519592 101.74171448 C55 102 55 102 57 104 C57.25 107 57.25 107 57 110 C54.63458583 112.36541417 54.17360121 112.25251801 50.96508789 112.27124023 C49.71853172 112.28652016 49.71853172 112.28652016 48.4467926 112.30210876 C47.54782761 112.30424881 46.64886261 112.30638885 45.72265625 112.30859375 C43.82877293 112.33375095 41.93489279 112.35914902 40.04101562 112.38476562 C37.04761558 112.41354122 34.05427085 112.43755154 31.06079102 112.45629883 C28.17695423 112.47790683 25.29376898 112.51734109 22.41015625 112.55859375 C21.51321548 112.55870956 20.61627472 112.55882538 19.69215393 112.5589447 C18.44086952 112.57895287 18.44086952 112.57895287 17.16430664 112.59936523 C16.4308754 112.60443588 15.69744415 112.60950653 14.94178772 112.61473083 C12.45383992 113.10836336 11.55794524 114.03717628 10 116 C9.4919618 117.94204967 9.4919618 117.94204967 9.5625 120 C9.53349609 121.0209375 9.53349609 121.0209375 9.50390625 122.0625 C10.23032986 124.89955601 11.5056854 125.52087016 14 127 C17.05987304 127.47105191 17.05987304 127.47105191 20.4453125 127.44140625 C21.68667969 127.46783203 22.92804688 127.49425781 24.20703125 127.52148438 C26.14642578 127.54178711 26.14642578 127.54178711 28.125 127.5625 C30.69023444 127.59682177 33.25537646 127.6393602 35.8203125 127.69140625 C36.95742676 127.70373291 38.09454102 127.71605957 39.26611328 127.72875977 C42 128 42 128 44 130 C44.35138883 132.74083291 44.46576275 134.32654787 42.86929321 136.63490295 C40.16524617 138.60959938 38.10616685 138.38817576 34.77880859 138.40405273 C33.49251556 138.41673691 32.20622253 138.42942108 30.88095093 138.44248962 C29.4701115 138.44043529 28.05927317 138.43744486 26.6484375 138.43359375 C25.19129189 138.43816026 23.73414843 138.44346723 22.27700806 138.44947815 C19.21192738 138.45842722 16.14710679 138.45597493 13.08203125 138.44604492 C9.96879991 138.43693035 6.85632323 138.44358255 3.74316406 138.46655273 C-18.15701518 138.62722056 -35.22515111 136.9903265 -56 129 C-56 107.22 -56 85.44 -56 63 C-53.03 62.01 -50.06 61.02 -47 60 C-42.60152777 57.12752834 -40.14796856 53.90998456 -37.125 49.625 C-32.29371001 42.79897286 -26.90651641 38.25046512 -20 33.625 C-7.81308303 25.16342324 -3.06692833 14.21939499 0 0 Z " fill="#F2D9CA" transform="translate(185,55)"/>
<path d="M0 0 C7.3501118 5.4975468 13.0755828 12.82817313 15.38671875 21.78515625 C16.97559602 34.14924524 15.56195974 45.33485177 8.13671875 55.59765625 C0.94620907 64.12876943 -7.61492651 69.18489893 -18.828125 70.2734375 C-31.28616167 71.02485762 -40.95732132 68.04264805 -50.55078125 59.72265625 C-58.17465836 51.20641693 -62.03849456 40.09725497 -61.88671875 28.8203125 C-60.87080351 17.5436533 -55.42178533 9.14918649 -47.36328125 1.53515625 C-33.01382734 -10.14614523 -15.13981695 -9.67332104 0 0 Z " fill="#F4DACB" transform="translate(417.61328125,336.21484375)"/>
<path d="M0 0 C6.18854097 4.2125802 10.47279861 8.64092248 13.9375 15.26953125 C14.55431641 16.37361328 14.55431641 16.37361328 15.18359375 17.5 C19.26580001 25.93279286 19.74058408 36.31409828 16.76171875 45.19921875 C12.21732442 56.30773823 6.15775567 63.81771824 -4.83984375 69.12768555 C-10.06255135 71.31573473 -14.81039635 71.78015469 -20.4375 71.70703125 C-21.69421509 71.69240845 -21.69421509 71.69240845 -22.97631836 71.67749023 C-34.92610447 71.33487318 -41.82772065 66.83659117 -50.0625 58.26953125 C-52.84220757 55.07614669 -54.73722259 52.22127632 -56.25 48.26953125 C-56.57355469 47.44453125 -56.89710937 46.61953125 -57.23046875 45.76953125 C-60.2940997 36.56425515 -60.44703881 26.45515404 -56.30859375 17.60546875 C-55.89738281 16.83460938 -55.48617187 16.06375 -55.0625 15.26953125 C-54.66160156 14.49867188 -54.26070313 13.7278125 -53.84765625 12.93359375 C-48.3047903 3.51875478 -39.31639407 -2.12394912 -28.9609375 -5.10546875 C-18.75982785 -7.30516894 -9.06115801 -5.12001658 0 0 Z " fill="#F4DACB" transform="translate(129.0625,334.73046875)"/>
<path d="M0 0 C6.74403907 0.42150244 11.65264998 2.77944355 16.546875 7.48828125 C21.07723918 12.64490165 22.24844666 17.01090898 22.26742554 23.76678467 C22.27195665 24.43440929 22.27648776 25.10203391 22.28115618 25.78988957 C22.29378385 28.01982812 22.29218089 30.24952192 22.29052734 32.47949219 C22.29651371 34.08137322 22.30331951 35.68325137 22.31088257 37.28512573 C22.32854099 41.63241819 22.33323794 45.97963189 22.33451414 50.32695675 C22.33593665 53.04524235 22.34020818 55.76350799 22.34550858 58.48178864 C22.36400991 67.97159596 22.37217925 77.46134712 22.37060547 86.95117188 C22.36940477 95.78588234 22.39049281 104.62034823 22.4220928 113.45499682 C22.44828149 121.04839306 22.45897164 128.64170955 22.45769465 136.23515058 C22.45718568 140.76656267 22.46283246 145.29775748 22.48405075 149.82912445 C22.50347635 154.09410606 22.50352828 158.35866412 22.48901749 162.62366104 C22.48693347 164.18407182 22.49160593 165.74450941 22.5037384 167.30487442 C22.57221203 176.72576934 22.36814 184.88961746 16 192.33984375 C15.34 192.86707031 14.68 193.39429688 14 193.9375 C13.34 194.48277344 12.68 195.02804688 12 195.58984375 C8.30745353 198.19337749 5.80843204 199.25907153 1.25 199.125 C0.45078125 199.10695312 -0.3484375 199.08890625 -1.171875 199.0703125 C-1.77515625 199.04710937 -2.3784375 199.02390625 -3 199 C-2.61328125 198.52691406 -2.2265625 198.05382812 -1.828125 197.56640625 C-1.30734375 196.90511719 -0.7865625 196.24382812 -0.25 195.5625 C0.51570313 194.60537109 0.51570313 194.60537109 1.296875 193.62890625 C7.19787559 184.52025167 7.58141574 176.2460685 7.53344727 165.62329102 C7.5405141 163.97317741 7.54926232 162.32307027 7.55955505 160.67297363 C7.58197317 156.21212651 7.57912714 151.75163546 7.57023358 147.2907536 C7.56510754 143.55825731 7.57242934 139.82582697 7.57970566 136.09333748 C7.59668061 127.28408965 7.5931631 118.47501515 7.57641602 109.66577148 C7.5594955 100.59575423 7.57533367 91.52621829 7.6076389 82.45625359 C7.6343792 74.65127343 7.64159887 66.8464427 7.63312382 59.04142135 C7.62820773 54.38761359 7.6303386 49.73409531 7.65091133 45.08032417 C7.66933853 40.70273423 7.66322449 36.32583379 7.63871193 31.94828033 C7.63372632 30.34798204 7.63713498 28.74763057 7.64986038 27.14737511 C7.71642536 18.05254501 7.17031154 10.75490879 2 3 C1.34 2.01 0.68 1.02 0 0 Z " fill="#01E298" transform="translate(277,23)"/>
<path d="M0 0 C-1.67454955 6.42591371 -3.51747883 12.78835743 -5.5 19.125 C-5.82266846 20.15826416 -5.82266846 20.15826416 -6.15185547 21.21240234 C-7.30469579 24.87637999 -8.52306032 28.50723559 -9.8125 32.125 C-10.94762176 35.56298374 -11.56721656 38.35360783 -11 42 C-7.88723706 47.18793824 -4.04244902 51.33821773 0.109375 55.67578125 C2.68174779 58.40980588 4.29507369 60.59014739 6 64 C-17.1 64 -40.2 64 -64 64 C-60.47833665 49.91334661 -60.47833665 49.91334661 -57.375 43.9375 C-57.02945068 43.26195068 -56.68390137 42.58640137 -56.32788086 41.89038086 C-52.98296386 35.58352974 -48.84640104 30.23912664 -44 25 C-43.31421875 24.22269531 -42.6284375 23.44539063 -41.921875 22.64453125 C-32.15689989 12.13814136 -14.726189 0 0 0 Z " fill="#88C6FB" transform="translate(90,425)"/>
<path d="M0 0 C21.51850483 3.94505922 39.65434643 17.20398149 52.09765625 35 C57.96832804 44.12971762 62.21006188 53.26037129 64 64 C40.9 64 17.8 64 -6 64 C-1.50806118 57.26209177 -1.50806118 57.26209177 0.7265625 54.9296875 C1.2009375 54.42566406 1.6753125 53.92164063 2.1640625 53.40234375 C3.14565597 52.3761324 4.12742957 51.35009332 5.109375 50.32421875 C8.93190201 46.26147829 11.02981136 43.90991453 10.94140625 38.24609375 C9.92853436 30.96505147 7.27342015 24.00481956 4.9375 17.0625 C4.22821743 14.9332092 3.52146596 12.80312349 2.81776428 10.67198181 C2.18415147 8.75632339 1.54331463 6.84305883 0.90209961 4.92993164 C0 2 0 2 0 0 Z " fill="#88C7FC" transform="translate(127,425)"/>
<path d="M0 0 C5.0293995 -0.62867494 7.8899225 0.72953209 12.0703125 3.22265625 C16.85862371 7.63294289 18.24244333 11.73549671 18.5146637 18.10289001 C18.54141 20.57488562 18.54613649 23.04717938 18.53344727 25.51928711 C18.54051308 26.88664172 18.54926088 28.25398851 18.55955505 29.62132263 C18.58198546 33.3198035 18.57912437 37.01785514 18.57023358 40.71637797 C18.56510965 43.81023811 18.57242764 46.90401858 18.57970566 49.9978705 C18.5966846 57.29967709 18.5931593 64.60127459 18.57641602 71.90307617 C18.55949633 79.42238656 18.57533121 86.94111634 18.6076389 94.46036333 C18.63437561 100.92940931 18.64159985 107.398275 18.63312382 113.86737067 C18.62820644 117.72527396 18.63034513 121.58282805 18.65091133 125.44068718 C18.66933312 129.06974682 18.6632321 132.69797457 18.63871193 136.32699013 C18.63135676 138.28393989 18.64850918 140.24093438 18.66653442 142.19781494 C18.59066832 149.26561991 18.02407016 154.70850641 13 160 C7.56658678 163.97339464 2.60919283 164.55076607 -4 164 C-3.57847656 163.39671875 -3.15695312 162.7934375 -2.72265625 162.171875 C-1.90087891 160.97304688 -1.90087891 160.97304688 -1.0625 159.75 C-0.24458984 158.56664062 -0.24458984 158.56664062 0.58984375 157.359375 C3.00266549 153.3224101 3.12716553 149.78581757 3.14044189 145.13052368 C3.14615204 143.93047195 3.15186218 142.73042023 3.15774536 141.4940033 C3.15886322 140.18065506 3.15998108 138.86730682 3.16113281 137.51416016 C3.16576307 136.11445485 3.17078801 134.7147508 3.17617798 133.31504822 C3.1892825 129.51541709 3.19574293 125.71580362 3.20018864 121.91615343 C3.20312203 119.54146494 3.20722731 117.16678125 3.21169281 114.79209518 C3.22536156 107.35970795 3.23503171 99.92733171 3.2388947 92.49493277 C3.24337644 83.91970667 3.26093225 75.34463989 3.2898953 66.76946223 C3.31151661 60.13749224 3.32159919 53.50556707 3.32293582 46.87356222 C3.32398337 42.91402455 3.3298807 38.95463678 3.34775543 34.99513626 C3.36424435 31.27030419 3.36638777 27.54573457 3.35761642 23.82087898 C3.35648007 21.80625118 3.3701904 19.79163206 3.3843689 17.77705383 C3.37601517 15.96851677 3.37601517 15.96851677 3.36749268 14.1234436 C3.36895924 13.07963846 3.3704258 12.03583332 3.3719368 10.96039772 C2.93467054 7.480016 1.65282138 5.06865918 0 2 C0 1.34 0 0.68 0 0 Z " fill="#E2A76E" transform="translate(469,86)"/>
<path d="M0 0 C1.12265259 -0.0087616 2.24530518 -0.01752319 3.40197754 -0.02655029 C7.10692172 -0.04852749 10.81066902 -0.03399593 14.515625 -0.01708984 C17.09342681 -0.02045842 19.67122707 -0.02531138 22.24902344 -0.03158569 C27.64925743 -0.03895484 33.04904295 -0.02872785 38.44921875 -0.00488281 C44.68314432 0.02232671 50.91625216 0.01351162 57.15015793 -0.01401484 C63.15917968 -0.03948128 69.16780295 -0.03673217 75.17687988 -0.02210617 C77.72855748 -0.01877173 80.28025597 -0.02286048 82.83190918 -0.03450394 C86.39891771 -0.04720868 89.9643582 -0.02783734 93.53125 0 C94.58493774 -0.01012115 95.63862549 -0.02024231 96.72424316 -0.03067017 C101.31517194 0.03567547 104.72671502 0.09542113 108.42871094 2.99990845 C110.765625 5.64697266 110.765625 5.64697266 111.390625 8.64697266 C110.63534922 12.2722964 109.32722165 14.01003493 106.765625 16.64697266 C104.35898541 17.85029245 102.84346779 17.78058034 100.154953 17.79414368 C99.1833876 17.80129898 98.2118222 17.80845428 97.21081543 17.81582642 C96.14117554 17.81851532 95.07153564 17.82120422 93.96948242 17.82397461 C92.28397026 17.83383141 92.28397026 17.83383141 90.56440735 17.84388733 C86.8333022 17.86365301 83.10223734 17.87528964 79.37109375 17.88525391 C78.09939142 17.88932943 76.82768909 17.89340496 75.51745033 17.89760399 C69.48236745 17.91632367 63.4473091 17.93088691 57.41220492 17.93921596 C50.44653921 17.94898804 43.4811913 17.97530623 36.51563758 18.01571685 C30.48215655 18.04951834 24.4488298 18.06136117 18.41524696 18.06542015 C15.84876664 18.07030053 13.28229007 18.08195546 10.71587181 18.10045815 C7.12697224 18.12472594 3.53890714 18.1239068 -0.05004883 18.11694336 C-1.11361603 18.12975342 -2.17718323 18.14256348 -3.27297974 18.15576172 C-10.48050383 18.1046939 -10.48050383 18.1046939 -14.37089539 15.74259949 C-16.57663259 13.26207755 -17.16061829 12.12112292 -17.671875 8.83447266 C-17.17060965 5.18239652 -16.11864648 3.93045857 -13.2442627 1.69108963 C-9.11034121 -0.4564421 -4.55689182 -0.04377104 0 0 Z " fill="#0C0A06" transform="translate(342.234375,118.35302734375)"/>
<path d="M0 0 C1.12265259 -0.0087616 2.24530518 -0.01752319 3.40197754 -0.02655029 C7.10692172 -0.04852749 10.81066902 -0.03399593 14.515625 -0.01708984 C17.09342681 -0.02045842 19.67122707 -0.02531138 22.24902344 -0.03158569 C27.64925743 -0.03895484 33.04904295 -0.02872785 38.44921875 -0.00488281 C44.68314432 0.02232671 50.91625216 0.01351162 57.15015793 -0.01401484 C63.15917968 -0.03948128 69.16780295 -0.03673217 75.17687988 -0.02210617 C77.72855748 -0.01877173 80.28025597 -0.02286048 82.83190918 -0.03450394 C86.39891771 -0.04720868 89.9643582 -0.02783734 93.53125 0 C94.58493774 -0.01012115 95.63862549 -0.02024231 96.72424316 -0.03067017 C101.31517194 0.03567547 104.72671502 0.09542113 108.42871094 2.99990845 C110.765625 5.64697266 110.765625 5.64697266 111.390625 8.64697266 C110.57298872 12.5716268 109.80439359 13.97289376 106.765625 16.64697266 C102.97543374 17.4205586 99.21614715 17.32938581 95.359375 17.29394531 C94.1947876 17.30270691 93.0302002 17.31146851 91.83032227 17.32049561 C87.97504585 17.34252884 84.12091338 17.32792128 80.265625 17.31103516 C77.59048023 17.31440213 74.9153704 17.31924581 72.24023438 17.32553101 C66.63138399 17.33462519 61.02286288 17.32264616 55.4140625 17.29882812 C48.93134931 17.27161671 42.44942235 17.28043108 35.96672821 17.30796015 C30.39883448 17.33065724 24.83117731 17.33384856 19.26325226 17.32076681 C15.93861308 17.3129753 12.61442411 17.31388741 9.28979492 17.32844925 C5.58327762 17.34112017 1.87827892 17.32182988 -1.828125 17.29394531 C-2.92954834 17.30406647 -4.03097168 17.31418762 -5.16577148 17.32461548 C-12.58203004 17.22102818 -12.58203004 17.22102818 -15.90820312 14.29403687 C-17.56721671 10.98261429 -17.99452702 9.29570237 -17.234375 5.64697266 C-12.10824737 -0.15948347 -7.45568634 -0.07161529 0 0 Z " fill="#060403" transform="translate(342.234375,159.35302734375)"/>
<path d="M0 0 C1.12265259 -0.0087616 2.24530518 -0.01752319 3.40197754 -0.02655029 C7.10692172 -0.04852749 10.81066902 -0.03399593 14.515625 -0.01708984 C17.09342681 -0.02045842 19.67122707 -0.02531138 22.24902344 -0.03158569 C27.64925743 -0.03895484 33.04904295 -0.02872785 38.44921875 -0.00488281 C44.68314432 0.02232671 50.91625216 0.01351162 57.15015793 -0.01401484 C63.15917968 -0.03948128 69.16780295 -0.03673217 75.17687988 -0.02210617 C77.72855748 -0.01877173 80.28025597 -0.02286048 82.83190918 -0.03450394 C86.39891771 -0.04720868 89.9643582 -0.02783734 93.53125 0 C94.58493774 -0.01012115 95.63862549 -0.02024231 96.72424316 -0.03067017 C101.31412273 0.03566031 104.72494825 0.09410778 108.42480469 2.99990845 C110.765625 5.64697266 110.765625 5.64697266 111.453125 8.64697266 C110.49354196 12.8342441 109.23013783 14.07647227 105.765625 16.64697266 C101.96137217 17.39829183 98.20504676 17.32990615 94.33764648 17.29394531 C93.18266663 17.30270691 92.02768677 17.31146851 90.83770752 17.32049561 C87.02032906 17.34250071 83.20410897 17.3279322 79.38671875 17.31103516 C76.73542335 17.31440271 74.08416317 17.319247 71.43287659 17.32553101 C65.8770797 17.33461977 60.32161549 17.32265908 54.76586914 17.29882812 C48.34504868 17.27160434 41.92502174 17.28044221 35.50422043 17.30796015 C29.9872609 17.33065674 24.4705401 17.33384922 18.95354897 17.32076681 C15.6602224 17.31297674 12.36735019 17.31388482 9.07403374 17.32844925 C5.40354282 17.34112003 1.7345854 17.32183084 -1.93579102 17.29394531 C-3.57154335 17.30912704 -3.57154335 17.30912704 -5.24034119 17.32461548 C-12.5836638 17.22103522 -12.5836638 17.22103522 -15.901474 14.29403687 C-17.56882473 10.98277486 -17.99520557 9.29895939 -17.234375 5.64697266 C-12.10824737 -0.15948347 -7.45568634 -0.07161529 0 0 Z " fill="#050402" transform="translate(342.234375,200.35302734375)"/>
<path d="M0 0 C5.28 0 10.56 0 16 0 C16 29.37 16 58.74 16 89 C10.72 89 5.44 89 0 89 C0 59.63 0 30.26 0 0 Z " fill="#CFCFD4" transform="translate(96,108)"/>
<path d="M0 0 C21.88906928 0.4060367 40.87737197 10.3861653 56.41796875 25.32421875 C65.86247394 35.49944001 77 51.57379155 77 66 C70.4 66 63.8 66 57 66 C56.835 64.700625 56.67 63.40125 56.5 62.0625 C53.97559788 49.54715429 47.01583925 37.75155248 39 28 C38.38640625 27.22398437 37.7728125 26.44796875 37.140625 25.6484375 C28.65941981 15.44996349 18.17260508 9.21271539 6.37109375 3.62890625 C3 2 3 2 0 0 Z " fill="#00E197" transform="translate(400,423)"/>
<path d="M0 0 C0.99 0.33 1.98 0.66 3 1 C4.22680664 3.70874023 4.22680664 3.70874023 5.41015625 7.30859375 C5.62312851 7.94934341 5.83610077 8.59009308 6.05552673 9.2502594 C6.505676 10.61280947 6.94997965 11.97730239 7.38891602 13.34350586 C8.05118019 15.40230971 8.73181733 17.45425499 9.41601562 19.50585938 C15.06371092 36.61304829 15.06371092 36.61304829 15 41 C13.06670089 43.88486121 10.66284623 45.80404974 8 48 C6.82636662 49.28770142 5.67841614 50.59947106 4.5625 51.9375 C3.716875 52.948125 2.87125 53.95875 2 55 C-2.07343271 52.03750349 -5.20566166 48.61640648 -8.44921875 44.8046875 C-10.02681009 42.92288746 -10.02681009 42.92288746 -12 41 C-11.70050405 32.22972097 -7.61095921 23.16474696 -4.875 14.875 C-4.40182298 13.42725344 -3.92916278 11.97933785 -3.45703125 10.53125 C-2.31063429 7.0188663 -1.15727798 3.50881582 0 0 Z " fill="#E5E8EA" transform="translate(107,423)"/>
<path d="M0 0 C21.51850483 3.94505922 39.65434643 17.20398149 52.09765625 35 C57.88147268 43.99464536 62.48958599 53.33170734 64 64 C60.04 64 56.08 64 52 64 C51.38125 62.18628906 51.38125 62.18628906 50.75 60.3359375 C45.11523623 44.19475608 38.23609004 31.07763707 26 19 C25.25878906 18.26007813 24.51757812 17.52015625 23.75390625 16.7578125 C17.53212902 10.88993453 8.64830664 3.4867549 0 2 C0 1.34 0 0.68 0 0 Z " fill="#5EB3FA" transform="translate(127,425)"/>
<path d="M0 0 C0.33 0 0.66 0 1 0 C1.33 9.9 1.66 19.8 2 30 C9.46785096 22.70515199 9.46785096 22.70515199 16.5 15 C17.04269531 14.38125 17.58539063 13.7625 18.14453125 13.125 C19.60143412 11.45646282 21.03071366 9.76380116 22.44921875 8.0625 C29.17767465 0.37754194 29.17767465 0.37754194 34.375 -0.69921875 C37.33178341 -0.68875843 40.08906665 -0.50293613 43 0 C38.89956789 4.83751885 34.70712884 9.55681462 30.375 14.1875 C29.77034912 14.83533447 29.16569824 15.48316895 28.54272461 16.15063477 C24.14568457 20.83747579 19.64250619 25.40170923 15.06591797 29.91259766 C11.68954223 33.25685022 8.5253112 36.71544347 5.5 40.37890625 C4 42 4 42 0 45 C0 30.15 0 15.3 0 0 Z " fill="#05D892" transform="translate(85,228)"/>
<path d="M0 0 C9.59036914 5.6263499 16.09254286 13.08117878 19.578125 23.7734375 C22.01970873 36.65957385 19.45055524 46.80562904 12.83984375 57.95703125 C8.91002729 63.29538408 1.60644476 68.82518188 -5 70 C-5 69.34 -5 68.68 -5 68 C-3.6796875 66.84375 -3.6796875 66.84375 -1.875 65.5 C6.78549107 58.23918425 11.11302723 46.93292498 12.34765625 35.890625 C12.68972247 24.40909787 9.21498405 14.58143375 3 5 C2.443125 4.443125 1.88625 3.88625 1.3125 3.3125 C0.879375 2.879375 0.44625 2.44625 0 2 C0 1.34 0 0.68 0 0 Z " fill="#EAC5B7" transform="translate(127,334)"/>
<path d="M0 0 C0 11.55 0 23.1 0 35 C-2.31 33.02 -4.62 31.04 -7 29 C-7.73089844 28.46117187 -8.46179688 27.92234375 -9.21484375 27.3671875 C-12.16180917 24.8144873 -13.78704364 22.63934912 -14.30078125 18.68457031 C-14.60586405 12.78121813 -14.38317733 6.89503578 -14 1 C-11.85420251 0.83287252 -9.70836101 0.66631 -7.5625 0.5 C-5.77005859 0.36078125 -5.77005859 0.36078125 -3.94140625 0.21875 C-1 0 -1 0 0 0 Z " fill="#D89E69" transform="translate(440,256)"/>
<path d="M0 0 C7.03686051 5.39226847 11.89691218 12.34358631 13.36962891 21.23046875 C14.558733 34.11106299 12.19489237 45.01957356 3.81640625 55.1171875 C1.40695172 57.61472962 -0.97943015 59.30553399 -4 61 C-2.92784128 57.78352383 -1.72468486 55.64498837 0.375 52.9375 C7.54369092 42.98216661 8.37708048 30.85462384 7 19 C5.82766978 13.99043283 4.09582439 9.74442689 1.36328125 5.39453125 C0 3 0 3 0 0 Z " fill="#EAC5B7" transform="translate(420,339)"/>
<path d="M0 0 C0.99 0.33 1.98 0.66 3 1 C4.25854492 3.81982422 4.25854492 3.81982422 5.48046875 7.5546875 C5.69818436 8.21203888 5.91589996 8.86939026 6.14021301 9.54666138 C6.59870304 10.93860669 7.05141053 12.33246794 7.4987793 13.72802734 C8.18378386 15.86341554 8.88611167 17.99246145 9.59179688 20.12109375 C13 30.52464438 13 30.52464438 13 34 C12.01 33.67 11.02 33.34 10 33 C8.83325195 30.31616211 8.83325195 30.31616211 7.73828125 26.77734375 C7.54276169 26.15726944 7.34724213 25.53719513 7.14579773 24.89833069 C6.52322772 22.91475594 5.91774091 20.92642285 5.3125 18.9375 C4.89369169 17.59275164 4.47378332 16.24834536 4.05273438 14.90429688 C3.02425776 11.60607877 2.00724933 8.30475064 1 5 C0.01 5.495 0.01 5.495 -1 6 C-0.67 4.02 -0.34 2.04 0 0 Z " fill="#BEBEC3" transform="translate(107,423)"/>
<path d="M0 0 C0.625 1.8125 0.625 1.8125 1 4 C0.01 5.485 0.01 5.485 -1 7 C-4.2578125 7.29296875 -4.2578125 7.29296875 -8.125 7.1875 C-10.04699219 7.14689453 -10.04699219 7.14689453 -12.0078125 7.10546875 C-12.99523437 7.07066406 -13.98265625 7.03585938 -15 7 C-14.25 5.0625 -14.25 5.0625 -13 3 C-10.12836283 1.82802842 -7.32322479 1.89230552 -4.25 1.9375 C-3.45078125 1.94652344 -2.6515625 1.95554687 -1.828125 1.96484375 C-1.22484375 1.97644531 -0.6215625 1.98804687 0 2 C0 1.34 0 0.68 0 0 Z " fill="#ECC9BA" transform="translate(239,108)"/>
<path d="M0 0 C1.05960938 0.00676758 1.05960938 0.00676758 2.140625 0.01367188 C3.88545275 0.02546125 5.630237 0.04339676 7.375 0.0625 C6.375 3.0625 6.375 3.0625 4.375 4.0625 C1.82342345 4.1341735 -0.69972971 4.15558442 -3.25 4.125 C-3.95640625 4.12048828 -4.6628125 4.11597656 -5.390625 4.11132812 C-7.13545275 4.09953875 -8.880237 4.08160324 -10.625 4.0625 C-10.295 3.0725 -9.965 2.0825 -9.625 1.0625 C-6.55966836 -0.47016582 -3.35745728 -0.04026471 0 0 Z " fill="#EEC9BA" transform="translate(239.625,136.9375)"/>
<path d="M0 0 C2.12508244 3.18762365 2.5020163 5.26512223 3 9 C2.01 8.67 1.02 8.34 0 8 C-1.125 2.25 -1.125 2.25 0 0 Z " fill="#B3B3B7" transform="translate(117,448)"/>
</svg>
